<svg width="117" height="17" viewBox="0 0 117 17" fill="none" xmlns="http://www.w3.org/2000/svg">
<path d="M14.1744 16.5519C14.0481 16.5524 13.9249 16.5137 13.8223 16.4412L8.99906 13.0009L4.17585 16.4412C4.0728 16.5148 3.94866 16.5542 3.82136 16.5537C3.69407 16.5533 3.57022 16.513 3.46772 16.4387C3.36522 16.3644 3.28938 16.26 3.25117 16.1406C3.21296 16.0211 3.21436 15.8928 3.25515 15.7741L5.13629 10.2922L0.260942 7.00269C0.155339 6.93152 0.0756353 6.82899 0.0334775 6.71007C-0.00868039 6.59116 -0.0110835 6.4621 0.0266195 6.34175C0.0643224 6.22139 0.140155 6.11606 0.243038 6.04112C0.345922 5.96619 0.470463 5.9256 0.598466 5.92527H6.61314L8.42827 0.429284C8.46737 0.310628 8.54367 0.207206 8.64622 0.133856C8.74876 0.0605054 8.87228 0.0209961 8.99906 0.0209961C9.12584 0.0209961 9.24937 0.0605054 9.35191 0.133856C9.45446 0.207206 9.53075 0.310628 9.56985 0.429284L11.385 5.92711H17.3997C17.5278 5.92705 17.6526 5.96736 17.7558 6.04215C17.859 6.11694 17.9352 6.22227 17.9731 6.34271C18.011 6.46316 18.0088 6.59239 17.9667 6.71148C17.9246 6.83058 17.8448 6.93328 17.7391 7.00454L12.8618 10.2922L14.7418 15.7727C14.7723 15.8614 14.7809 15.956 14.7668 16.0486C14.7528 16.1412 14.7166 16.2293 14.6611 16.3054C14.6057 16.3815 14.5327 16.4436 14.448 16.4865C14.3634 16.5293 14.2696 16.5518 14.1744 16.5519Z" fill="#E1B168"/>
<path d="M39.1744 16.5519C39.0481 16.5524 38.9249 16.5137 38.8223 16.4412L33.9991 13.0009L29.1758 16.4412C29.0728 16.5148 28.9487 16.5542 28.8214 16.5537C28.6941 16.5533 28.5702 16.513 28.4677 16.4387C28.3652 16.3644 28.2894 16.26 28.2512 16.1406C28.213 16.0211 28.2144 15.8928 28.2552 15.7741L30.1363 10.2922L25.2609 7.00269C25.1553 6.93152 25.0756 6.82899 25.0335 6.71007C24.9913 6.59116 24.9889 6.4621 25.0266 6.34175C25.0643 6.22139 25.1402 6.11606 25.243 6.04112C25.3459 5.96619 25.4705 5.9256 25.5985 5.92527H31.6131L33.4283 0.429284C33.4674 0.310628 33.5437 0.207206 33.6462 0.133856C33.7488 0.0605054 33.8723 0.0209961 33.9991 0.0209961C34.1258 0.0209961 34.2494 0.0605054 34.3519 0.133856C34.4545 0.207206 34.5308 0.310628 34.5699 0.429284L36.385 5.92711H42.3997C42.5278 5.92705 42.6526 5.96736 42.7558 6.04215C42.859 6.11694 42.9352 6.22227 42.9731 6.34271C43.011 6.46316 43.0088 6.59239 42.9667 6.71148C42.9246 6.83058 42.8448 6.93328 42.7391 7.00454L37.8618 10.2922L39.7418 15.7727C39.7723 15.8614 39.7809 15.956 39.7668 16.0486C39.7528 16.1412 39.7166 16.2293 39.6611 16.3054C39.6057 16.3815 39.5327 16.4436 39.448 16.4865C39.3634 16.5293 39.2696 16.5518 39.1744 16.5519Z" fill="#E1B168"/>
<path d="M63.1744 16.5519C63.0481 16.5524 62.9249 16.5137 62.8223 16.4412L57.9991 13.0009L53.1758 16.4412C53.0728 16.5148 52.9487 16.5542 52.8214 16.5537C52.6941 16.5533 52.5702 16.513 52.4677 16.4387C52.3652 16.3644 52.2894 16.26 52.2512 16.1406C52.213 16.0211 52.2144 15.8928 52.2552 15.7741L54.1363 10.2922L49.2609 7.00269C49.1553 6.93152 49.0756 6.82899 49.0335 6.71007C48.9913 6.59116 48.9889 6.4621 49.0266 6.34175C49.0643 6.22139 49.1402 6.11606 49.243 6.04112C49.3459 5.96619 49.4705 5.9256 49.5985 5.92527H55.6131L57.4283 0.429284C57.4674 0.310628 57.5437 0.207206 57.6462 0.133856C57.7488 0.0605054 57.8723 0.0209961 57.9991 0.0209961C58.1258 0.0209961 58.2494 0.0605054 58.3519 0.133856C58.4545 0.207206 58.5308 0.310628 58.5699 0.429284L60.385 5.92711H66.3997C66.5278 5.92705 66.6526 5.96736 66.7558 6.04215C66.859 6.11694 66.9352 6.22227 66.9731 6.34271C67.011 6.46316 67.0088 6.59239 66.9667 6.71148C66.9246 6.83058 66.8448 6.93328 66.7391 7.00454L61.8618 10.2922L63.7418 15.7727C63.7723 15.8614 63.7809 15.956 63.7668 16.0486C63.7528 16.1412 63.7166 16.2293 63.6611 16.3054C63.6057 16.3815 63.5327 16.4436 63.448 16.4865C63.3634 16.5293 63.2696 16.5518 63.1744 16.5519Z" fill="#E1B168"/>
<path d="M88.1744 16.5519C88.0481 16.5524 87.9249 16.5137 87.8223 16.4412L82.9991 13.0009L78.1758 16.4412C78.0728 16.5148 77.9487 16.5542 77.8214 16.5537C77.6941 16.5533 77.5702 16.513 77.4677 16.4387C77.3652 16.3644 77.2894 16.26 77.2512 16.1406C77.213 16.0211 77.2144 15.8928 77.2552 15.7741L79.1363 10.2922L74.2609 7.00269C74.1553 6.93152 74.0756 6.82899 74.0335 6.71007C73.9913 6.59116 73.9889 6.4621 74.0266 6.34175C74.0643 6.22139 74.1402 6.11606 74.243 6.04112C74.3459 5.96619 74.4705 5.9256 74.5985 5.92527H80.6131L82.4283 0.429284C82.4674 0.310628 82.5437 0.207206 82.6462 0.133856C82.7488 0.0605054 82.8723 0.0209961 82.9991 0.0209961C83.1258 0.0209961 83.2494 0.0605054 83.3519 0.133856C83.4545 0.207206 83.5308 0.310628 83.5699 0.429284L85.385 5.92711H91.3997C91.5278 5.92705 91.6526 5.96736 91.7558 6.04215C91.859 6.11694 91.9352 6.22227 91.9731 6.34271C92.011 6.46316 92.0088 6.59239 91.9667 6.71148C91.9246 6.83058 91.8448 6.93328 91.7391 7.00454L86.8618 10.2922L88.7418 15.7727C88.7723 15.8614 88.7809 15.956 88.7668 16.0486C88.7528 16.1412 88.7166 16.2293 88.6611 16.3054C88.6057 16.3815 88.5327 16.4436 88.448 16.4865C88.3634 16.5293 88.2696 16.5518 88.1744 16.5519Z" fill="#E1B168"/>
<path d="M113.174 16.5519C113.048 16.5524 112.925 16.5137 112.822 16.4412L107.999 13.0009L103.176 16.4412C103.073 16.5148 102.949 16.5542 102.821 16.5537C102.694 16.5533 102.57 16.513 102.468 16.4387C102.365 16.3644 102.289 16.26 102.251 16.1406C102.213 16.0211 102.214 15.8928 102.255 15.7741L104.136 10.2922L99.2609 7.00269C99.1553 6.93152 99.0756 6.82899 99.0335 6.71007C98.9913 6.59116 98.9889 6.4621 99.0266 6.34175C99.0643 6.22139 99.1402 6.11606 99.243 6.04112C99.3459 5.96619 99.4705 5.9256 99.5985 5.92527H105.613L107.428 0.429284C107.467 0.310628 107.544 0.207206 107.646 0.133856C107.749 0.0605054 107.872 0.0209961 107.999 0.0209961C108.126 0.0209961 108.249 0.0605054 108.352 0.133856C108.454 0.207206 108.531 0.310628 108.57 0.429284L110.385 5.92711H116.4C116.528 5.92705 116.653 5.96736 116.756 6.04215C116.859 6.11694 116.935 6.22227 116.973 6.34271C117.011 6.46316 117.009 6.59239 116.967 6.71148C116.925 6.83058 116.845 6.93328 116.739 7.00454L111.862 10.2922L113.742 15.7727C113.772 15.8614 113.781 15.956 113.767 16.0486C113.753 16.1412 113.717 16.2293 113.661 16.3054C113.606 16.3815 113.533 16.4436 113.448 16.4865C113.363 16.5293 113.27 16.5518 113.174 16.5519Z" fill="#E1B168"/>
</svg>
