<svg width="15" height="12" viewBox="0 0 15 12" fill="none" xmlns="http://www.w3.org/2000/svg">
<path d="M2.72551 10.5804C3.42682 10.2795 4.03898 9.82201 4.56198 9.20808C5.08499 8.59414 5.39998 7.96817 5.50696 7.33016C5.5664 6.99309 5.59611 6.70418 5.59611 6.46342C5.59611 6.18655 5.5664 5.95783 5.50696 5.77726C4.9483 6.36712 4.24105 6.66205 3.38522 6.66205C2.52938 6.66205 1.83402 6.40925 1.29913 5.90366C0.764231 5.39806 0.496784 4.69986 0.496784 3.80905C0.496784 2.96639 0.782061 2.28023 1.35262 1.75056C1.91128 1.22089 2.62448 0.956056 3.49219 0.956056C4.68085 0.956056 5.54857 1.38942 6.09535 2.25616C6.34497 2.62933 6.54109 3.08677 6.68373 3.62848C6.82637 4.18223 6.89769 4.74801 6.89769 5.32583C6.89769 6.58982 6.57675 7.74546 5.93488 8.79277C5.29301 9.84007 4.33614 10.6587 3.06428 11.2485L2.72551 10.5804ZM10.2497 10.5804C10.951 10.2795 11.5632 9.82201 12.0862 9.20808C12.6092 8.59414 12.9242 7.96817 13.0311 7.33016C13.0906 6.99309 13.1203 6.70418 13.1203 6.46342C13.1203 6.18655 13.0906 5.95783 13.0311 5.77726C12.4725 6.36712 11.7652 6.66205 10.9094 6.66205C10.0536 6.66205 9.35821 6.40925 8.82331 5.90366C8.28842 5.39806 8.02097 4.69986 8.02097 3.80905C8.02097 2.96639 8.30625 2.28023 8.8768 1.75056C9.43547 1.22089 10.1487 0.956056 11.0164 0.956056C12.205 0.956056 13.0728 1.38942 13.6195 2.25616C13.8692 2.62933 14.0653 3.08677 14.2079 3.62848C14.3506 4.18223 14.4219 4.74801 14.4219 5.32584C14.4219 6.58982 14.1009 7.74546 13.4591 8.79277C12.8172 9.84007 11.8603 10.6587 10.5885 11.2485L10.2497 10.5804Z" fill="#292E36"/>
</svg>
